<?xml version="1.0" encoding="iso-8859-1"?>
<!-- Generator: Adobe Illustrator 19.0.0, SVG Export Plug-In . SVG Version: 6.00 Build 0)  -->
<svg version="1.1" id="Layer_1" xmlns="http://www.w3.org/2000/svg" xmlns:xlink="http://www.w3.org/1999/xlink" x="0px" y="0px"
	 viewBox="0 0 512 512" style="enable-background:new 0 0 512 512;" xml:space="preserve">
<circle style="fill:#FD8469;" cx="256" cy="256" r="256"/>
<path style="fill:#FC6F58;" d="M437.019,437.019c37.211-37.21,60.561-83.03,70.072-131.046l-151.15-151.15L237.611,270.641
	l-78.624,89.345l147.085,147.085C354.052,497.548,399.834,474.205,437.019,437.019z"/>
<circle style="fill:#2B3B4E;" cx="256" cy="256" r="142.222"/>
<path style="fill:#1B2A38;" d="M256,113.778c-0.193,0-0.381,0.014-0.574,0.014v284.415c0.193,0,0.381,0.014,0.574,0.014
	c78.546,0,142.222-63.676,142.222-142.222S334.546,113.778,256,113.778z"/>
<g>
	<rect x="241.347" y="170.667" style="fill:#4CDBC4;" width="29.306" height="85.333"/>
	<path style="fill:#4CDBC4;" d="M256,355.987c-26.707,0-51.817-10.4-70.703-29.284c-38.984-38.984-38.984-102.419,0-141.403
		l20.723,20.723c-13.35,13.348-20.702,31.099-20.702,49.978s7.352,36.63,20.702,49.978c13.348,13.35,31.099,20.702,49.978,20.702
		s36.63-7.352,49.978-20.702c13.35-13.348,20.702-31.099,20.702-49.978s-7.352-36.63-20.702-49.978l20.723-20.723
		c38.984,38.984,38.984,102.419,0,141.403C307.817,345.586,282.707,355.987,256,355.987z"/>
</g>
<g>
	<rect x="255.431" y="170.667" style="fill:#38C1A7;" width="15.227" height="85.333"/>
	<path style="fill:#38C1A7;" d="M326.703,185.297l-20.723,20.723c13.35,13.348,20.702,31.099,20.702,49.978
		s-7.352,36.63-20.702,49.978c-13.348,13.35-31.099,20.702-49.978,20.702c-0.191,0-0.383-0.012-0.574-0.014v29.306
		c0.191,0.002,0.383,0.014,0.574,0.014c26.707,0,51.817-10.4,70.703-29.284C365.687,287.716,365.687,224.284,326.703,185.297z"/>
</g>
<g>
</g>
<g>
</g>
<g>
</g>
<g>
</g>
<g>
</g>
<g>
</g>
<g>
</g>
<g>
</g>
<g>
</g>
<g>
</g>
<g>
</g>
<g>
</g>
<g>
</g>
<g>
</g>
<g>
</g>
</svg>
